<svg xmlns="http://www.w3.org/2000/svg" width="32" height="32" viewBox="0 0 32 32">
  <defs>
    <linearGradient id="g" x1="0%" y1="0%" x2="100%" y2="100%">
      <stop offset="0%" stop-color="#FF6B35"/>
      <stop offset="100%" stop-color="#FFD23F"/>
    </linearGradient>
  </defs>
  <rect width="32" height="32" rx="8" fill="url(#g)"/>
  <path d="M16 6l-2.5 7.6a2.6 2.6 0 0 1-1.7 1.7L4.2 18l7.6 2.5a2.6 2.6 0 0 1 1.7 1.7L16 29.8l2.5-7.6a2.6 2.6 0 0 1 1.7-1.7l7.6-2.5-7.6-2.5a2.6 2.6 0 0 1-1.7-1.7L16 6Z" fill="white" opacity=".95"/>
  <circle cx="7" cy="8" r="1.2" fill="white" opacity=".7"/>
  <circle cx="25" cy="26" r="1" fill="white" opacity=".6"/>
</svg>
